<svg width="14" height="8" viewBox="0 0 14 8" fill="none" xmlns="http://www.w3.org/2000/svg">
<path d="M13.0087 0.464583C12.8212 0.277112 12.5669 0.171796 12.3017 0.171796C12.0366 0.171796 11.7823 0.277112 11.5947 0.464583L6.64473 5.41458L1.69473 0.464583C1.50612 0.282425 1.25352 0.181631 0.991325 0.183909C0.729129 0.186187 0.478315 0.291356 0.292908 0.476764C0.1075 0.662172 0.00233173 0.912985 5.34058e-05 1.17518C-0.00222492 1.43738 0.0985689 1.68998 0.280727 1.87858L5.93773 7.53558C6.12526 7.72305 6.37956 7.82837 6.64473 7.82837C6.90989 7.82837 7.1642 7.72305 7.35173 7.53558L13.0087 1.87858C13.1962 1.69105 13.3015 1.43675 13.3015 1.17158C13.3015 0.906418 13.1962 0.652111 13.0087 0.464583Z" fill="#9CA3AF"/>
</svg>
