<svg width="25" height="30" viewBox="0 0 25 30" fill="none" xmlns="http://www.w3.org/2000/svg">
<path d="M4.625 24.1875V12.375C4.625 10.2864 5.45469 8.28338 6.93153 6.80653C8.40838 5.32969 10.4114 4.5 12.5 4.5C14.5886 4.5 16.5916 5.32969 18.0685 6.80653C19.5453 8.28338 20.375 10.2864 20.375 12.375V24.1875M4.625 24.1875H20.375M4.625 24.1875H2M20.375 24.1875H23M11.1875 28.125H13.8125" stroke="#C6CAD1" stroke-width="2.5" stroke-linecap="round" stroke-linejoin="round"/>
<path d="M12.5 4.5C13.2249 4.5 13.8125 3.91237 13.8125 3.1875C13.8125 2.46263 13.2249 1.875 12.5 1.875C11.7751 1.875 11.1875 2.46263 11.1875 3.1875C11.1875 3.91237 11.7751 4.5 12.5 4.5Z" stroke="#C6CAD1" stroke-width="2.5"/>
</svg>
