<svg width="20" height="16" viewBox="0 0 20 16" fill="none" xmlns="http://www.w3.org/2000/svg">
<path fill-rule="evenodd" clip-rule="evenodd" d="M0.716736 3.80319C0.502428 3.90258 0.321231 4.06005 0.194313 4.25721C0.0673959 4.45436 0 4.68306 0 4.91658C0 5.1501 0.0673959 5.3788 0.194313 5.57596C0.321231 5.77311 0.502428 5.93058 0.716736 6.02997L2.50292 6.86132V11.6893C2.50292 12.6032 2.80394 13.623 3.68205 14.2511C4.78873 15.0393 6.80474 16 10.0024 16C13.2 16 15.211 15.0332 16.3227 14.2511C17.2008 13.6254 17.5018 12.613 17.5018 11.6893V6.86132L18.7509 6.27876V11.6856C18.7509 11.8489 18.8167 12.0056 18.9338 12.1211C19.051 12.2365 19.2098 12.3014 19.3755 12.3014C19.5411 12.3014 19.7 12.2365 19.8171 12.1211C19.9342 12.0056 20 11.8489 20 11.6856V4.91166C20.0001 4.67841 19.9329 4.44994 19.8064 4.25284C19.68 4.05573 19.4993 3.89809 19.2855 3.79826L12.1408 0.47287C11.473 0.161499 10.7435 0 10.0049 0C9.26621 0 8.53673 0.161499 7.86895 0.47287L0.72423 3.79826L0.716736 3.80319ZM3.75199 11.6856V7.43649L7.86146 9.35783C8.52923 9.6692 9.25871 9.8307 9.99738 9.8307C10.7361 9.8307 11.4655 9.6692 12.1333 9.35783L16.2428 7.43649V11.6856C16.2428 12.3704 16.0179 12.9296 15.5808 13.2375C14.6764 13.8816 12.9202 14.7647 9.99738 14.7647C7.07454 14.7647 5.31334 13.8878 4.41401 13.2375C3.97808 12.9271 3.75199 12.3642 3.75199 11.6856ZM8.39856 1.58626C8.89831 1.35284 9.4444 1.23176 9.99738 1.23176C10.5504 1.23176 11.0965 1.35284 11.5962 1.58626L18.7409 4.91166L11.5962 8.23705C11.0965 8.47047 10.5504 8.59155 9.99738 8.59155C9.4444 8.59155 8.89831 8.47047 8.39856 8.23705L1.25384 4.91166L8.39856 1.58626Z" fill="#9CA3AF"/>
</svg>
