<svg width="18" height="24" viewBox="0 0 18 24" fill="none" xmlns="http://www.w3.org/2000/svg">
<path d="M5.46826 8.33549L5.46626 8.33649L5.46326 8.33849L5.46826 8.33549ZM15.4223 8.14849C15.3529 8.0811 15.2757 8.02234 15.1923 7.97349C15.0744 7.90411 14.9436 7.85964 14.8079 7.84282C14.6722 7.826 14.5344 7.8372 14.4032 7.87572C14.272 7.91424 14.1501 7.97927 14.045 8.06678C13.9399 8.15428 13.8539 8.26242 13.7923 8.38449C13.4475 9.06315 12.9724 9.66731 12.3943 10.1625C12.4828 9.66401 12.5276 9.15876 12.5283 8.65249C12.5306 7.11254 12.1246 5.59951 11.3516 4.2676C10.5787 2.93568 9.46646 1.8325 8.12826 1.07049C7.98083 0.986717 7.81451 0.941813 7.64495 0.939999C7.47538 0.938184 7.30815 0.979518 7.15895 1.06011C7.00976 1.14071 6.88351 1.25792 6.79207 1.40073C6.70064 1.54354 6.64702 1.70726 6.63626 1.87649C6.5801 2.82455 6.33215 3.75136 5.90742 4.60082C5.48269 5.45028 4.89002 6.20472 4.16526 6.81849L3.93526 7.00549C3.17673 7.51556 2.50545 8.14464 1.94726 8.86849C1.07954 9.9616 0.478451 11.2419 0.191678 12.6077C-0.0950947 13.9736 -0.0596659 15.3875 0.295155 16.7373C0.649976 18.0871 1.31443 19.3357 2.23581 20.3839C3.15719 21.4322 4.31016 22.2514 5.60326 22.7765C5.75508 22.8383 5.91976 22.8618 6.08281 22.845C6.24586 22.8282 6.40228 22.7716 6.5383 22.6801C6.67431 22.5886 6.78576 22.4651 6.86283 22.3205C6.9399 22.1758 6.98023 22.0144 6.98026 21.8505C6.98023 21.7445 6.96336 21.6392 6.93026 21.5385C6.70706 20.6974 6.64262 19.8222 6.74026 18.9575C7.68648 20.7423 9.20564 22.1568 11.0533 22.9735C11.2787 23.074 11.5334 23.0875 11.7683 23.0115C13.2277 22.5403 14.5425 21.7039 15.5877 20.5815C16.6328 19.4591 17.3737 18.0882 17.7398 16.5989C18.1059 15.1096 18.0852 13.5514 17.6796 12.0724C17.274 10.5934 16.4969 9.24264 15.4223 8.14849ZM11.5173 20.9795C10.6454 20.538 9.87629 19.9178 9.25999 19.1594C8.64369 18.401 8.19403 17.5212 7.94026 16.5775C7.86279 16.2597 7.8027 15.9379 7.76026 15.6135C7.73181 15.4069 7.63949 15.2144 7.49622 15.0629C7.35296 14.9114 7.16592 14.8084 6.96126 14.7685C6.89832 14.7564 6.83436 14.7504 6.77026 14.7505C6.59456 14.7503 6.42191 14.7964 6.26971 14.8842C6.1175 14.972 5.99111 15.0983 5.90326 15.2505C5.07376 16.6818 4.65669 18.3147 4.69826 19.9685C3.96842 19.4012 3.35844 18.6947 2.90368 17.8899C2.44892 17.0851 2.15842 16.198 2.04904 15.2801C1.93965 14.3622 2.01354 13.4318 2.26643 12.5426C2.51932 11.6535 2.94618 10.8234 3.52226 10.1005C3.96028 9.53287 4.48786 9.04042 5.08426 8.64249C5.1101 8.62533 5.13513 8.60698 5.15926 8.58749C5.15926 8.58749 5.45526 8.34249 5.46526 8.33749C6.89036 7.13244 7.9041 5.5129 8.36526 3.70449C9.45469 4.71185 10.181 6.05075 10.4315 7.51325C10.6819 8.97576 10.4424 10.48 9.75026 11.7925C9.65866 11.9677 9.62103 12.1661 9.64213 12.3626C9.66323 12.5592 9.74212 12.7451 9.86882 12.8968C9.99552 13.0485 10.1644 13.1593 10.354 13.2152C10.5436 13.271 10.7456 13.2694 10.9343 13.2105C12.4659 12.7299 13.8136 11.7918 14.7963 10.5225C15.387 11.3947 15.7732 12.389 15.9261 13.4313C16.0791 14.4736 15.9948 15.5369 15.6796 16.5421C15.3644 17.5473 14.8264 18.4683 14.1057 19.2366C13.385 20.005 12.5002 20.6007 11.5173 20.9795Z" fill="#F97315"/>
</svg>
