<svg width="17" height="18" viewBox="0 0 17 18" fill="none" xmlns="http://www.w3.org/2000/svg">
<path d="M8.5 17.5C6.51667 17.5 4.76157 16.8981 3.23472 15.6942C1.70787 14.4904 0.716204 12.9516 0.259722 11.0778C0.196759 10.8417 0.243981 10.6254 0.401389 10.4289C0.558796 10.2325 0.771296 10.1182 1.03889 10.0861C1.29074 10.0546 1.51898 10.1018 1.72361 10.2278C1.92824 10.3537 2.06991 10.5426 2.14861 10.7944C2.52639 12.2111 3.30556 13.3681 4.48611 14.2653C5.66667 15.1625 7.00463 15.6111 8.5 15.6111C10.3417 15.6111 11.9041 14.9698 13.1873 13.6873C14.4705 12.4047 15.1117 10.8423 15.1111 9C15.1105 7.1577 14.4692 5.59559 13.1873 4.31367C11.9053 3.03174 10.3429 2.39015 8.5 2.38889C7.41389 2.38889 6.39861 2.64074 5.45417 3.14444C4.50972 3.64815 3.71481 4.34074 3.06944 5.22222H4.72222C4.98981 5.22222 5.21428 5.31289 5.39561 5.49422C5.57694 5.67555 5.6673 5.8997 5.66667 6.16666C5.66604 6.43363 5.57537 6.65809 5.39467 6.84005C5.21396 7.02202 4.98981 7.11237 4.72222 7.11111H0.944444C0.676852 7.11111 0.452704 7.02044 0.272 6.83911C0.0912964 6.65778 0.00062963 6.43363 0 6.16666V2.38889C0 2.1213 0.0906668 1.89715 0.272 1.71644C0.453333 1.53574 0.677481 1.44507 0.944444 1.44444C1.21141 1.44381 1.43587 1.53448 1.61783 1.71644C1.7998 1.89841 1.89015 2.12256 1.88889 2.38889V3.66389C2.69167 2.65648 3.67168 1.87731 4.82894 1.32639C5.9862 0.775463 7.20989 0.5 8.5 0.5C9.68055 0.5 10.7865 0.724463 11.8178 1.17339C12.8492 1.62231 13.7464 2.22802 14.5095 2.9905C15.2726 3.75298 15.8786 4.6502 16.3276 5.68217C16.7765 6.71413 17.0006 7.82007 17 9C16.9994 10.1799 16.7752 11.2859 16.3276 12.3178C15.8799 13.3498 15.2739 14.247 14.5095 15.0095C13.7451 15.772 12.8479 16.378 11.8178 16.8276C10.7878 17.2771 9.68181 17.5013 8.5 17.5ZM9.44444 8.62222L11.8056 10.9833C11.9787 11.1565 12.0653 11.3768 12.0653 11.6444C12.0653 11.912 11.9787 12.1324 11.8056 12.3056C11.6324 12.4787 11.412 12.5653 11.1444 12.5653C10.8769 12.5653 10.6565 12.4787 10.4833 12.3056L7.83889 9.66111C7.74444 9.56666 7.67361 9.46057 7.62639 9.34283C7.57917 9.22509 7.55555 9.10294 7.55555 8.97639V5.22222C7.55555 4.95463 7.64622 4.73048 7.82756 4.54978C8.00889 4.36907 8.23304 4.27841 8.5 4.27778C8.76696 4.27715 8.99143 4.36781 9.17339 4.54978C9.35535 4.73174 9.4457 4.95589 9.44444 5.22222V8.62222Z" fill="#9CA3AF"/>
</svg>
