<svg width="15" height="19" viewBox="0 0 15 19" fill="none" xmlns="http://www.w3.org/2000/svg">
<path d="M4.505 4.02632C4.505 3.3563 4.78198 2.71372 5.27499 2.23994C5.76801 1.76616 6.43668 1.5 7.13391 1.5C7.83114 1.5 8.49982 1.76616 8.99283 2.23994C9.48585 2.71372 9.76282 3.3563 9.76282 4.02632V8.23684C9.76282 8.90686 9.48585 9.54944 8.99283 10.0232C8.49982 10.497 7.83114 10.7632 7.13391 10.7632C6.43668 10.7632 5.76801 10.497 5.27499 10.0232C4.78198 9.54944 4.505 8.90686 4.505 8.23684V4.02632Z" stroke="#9CA3AF" stroke-width="2" stroke-linecap="round" stroke-linejoin="round"/>
<path d="M1 8.23688C1 9.80026 1.64627 11.2996 2.79664 12.4051C3.94701 13.5106 5.50725 14.1316 7.13412 14.1316M7.13412 14.1316C8.76099 14.1316 10.3212 13.5106 11.4716 12.4051C12.622 11.2996 13.2682 9.80026 13.2682 8.23688M7.13412 14.1316V17.5M3.62891 17.5H10.6393" stroke="#9CA3AF" stroke-width="2" stroke-linecap="round" stroke-linejoin="round"/>
</svg>
