<svg width="18" height="20" viewBox="0 0 18 20" fill="none" xmlns="http://www.w3.org/2000/svg">
<path d="M9.00125 12.5456C10.4071 12.5456 11.5468 11.4059 11.5468 10C11.5468 8.59412 10.4071 7.45444 9.00125 7.45444C7.59537 7.45444 6.45569 8.59412 6.45569 10C6.45569 11.4059 7.59537 12.5456 9.00125 12.5456Z" stroke="#9CA3AF" stroke-width="1.5"/>
<path d="M10.4976 1.64378C10.1862 1.5148 9.79082 1.5148 9 1.5148C8.20918 1.5148 7.81377 1.5148 7.50236 1.64378C7.29633 1.72906 7.10912 1.85412 6.95144 2.0118C6.79376 2.16948 6.6687 2.35669 6.58342 2.56272C6.50535 2.75194 6.47396 2.97341 6.46208 3.295C6.45655 3.52743 6.39216 3.75466 6.27493 3.95544C6.1577 4.15622 5.99145 4.32399 5.79175 4.44304C5.58879 4.55655 5.36035 4.61671 5.12781 4.6179C4.89527 4.61909 4.66623 4.56126 4.46212 4.44983C4.17701 4.29879 3.97082 4.21564 3.76633 4.18849C3.32028 4.12983 2.86919 4.25069 2.51222 4.5245C2.24578 4.73069 2.04723 5.07264 1.65182 5.7574C1.25641 6.44215 1.05786 6.78411 1.01458 7.11927C0.985422 7.34027 1.00009 7.56485 1.05774 7.78018C1.1154 7.99551 1.21491 8.19737 1.3506 8.37423C1.47618 8.53715 1.65182 8.67376 1.92419 8.84516C2.32554 9.09717 2.58349 9.52652 2.58349 10C2.58349 10.4735 2.32554 10.9028 1.92419 11.154C1.65182 11.3262 1.47533 11.4628 1.3506 11.6258C1.21491 11.8026 1.1154 12.0045 1.05774 12.2198C1.00009 12.4351 0.985422 12.6597 1.01458 12.8807C1.0587 13.215 1.25641 13.5578 1.65097 14.2426C2.04723 14.9274 2.24494 15.2693 2.51222 15.4755C2.68908 15.6112 2.89094 15.7107 3.10627 15.7683C3.3216 15.826 3.54618 15.8407 3.76718 15.8115C3.97082 15.7844 4.17701 15.7012 4.46212 15.5502C4.66623 15.4387 4.89527 15.3809 5.12781 15.3821C5.36035 15.3833 5.58879 15.4434 5.79175 15.557C6.20158 15.7945 6.44511 16.2315 6.46208 16.705C6.47396 17.0274 6.5045 17.2481 6.58342 17.4373C6.6687 17.6433 6.79376 17.8305 6.95144 17.9882C7.10912 18.1459 7.29633 18.2709 7.50236 18.3562C7.81377 18.4852 8.20918 18.4852 9 18.4852C9.79082 18.4852 10.1862 18.4852 10.4976 18.3562C10.7037 18.2709 10.8909 18.1459 11.0486 17.9882C11.2062 17.8305 11.3313 17.6433 11.4166 17.4373C11.4946 17.2481 11.526 17.0274 11.5379 16.705C11.5549 16.2315 11.7984 15.7937 12.2083 15.557C12.4112 15.4434 12.6397 15.3833 12.8722 15.3821C13.1047 15.3809 13.3338 15.4387 13.5379 15.5502C13.823 15.7012 14.0292 15.7844 14.2328 15.8115C14.4538 15.8407 14.6784 15.826 14.8937 15.7683C15.1091 15.7107 15.3109 15.6112 15.4878 15.4755C15.7551 15.2702 15.9528 14.9274 16.3482 14.2426C16.7436 13.5578 16.9421 13.2159 16.9854 12.8807C17.0146 12.6597 16.9999 12.4351 16.9423 12.2198C16.8846 12.0045 16.7851 11.8026 16.6494 11.6258C16.5238 11.4628 16.3482 11.3262 16.0758 11.1548C15.8772 11.0338 15.7125 10.8644 15.5972 10.6624C15.4819 10.4605 15.4197 10.2325 15.4165 10C15.4165 9.52652 15.6745 9.09717 16.0758 8.84601C16.3482 8.67376 16.5247 8.53715 16.6494 8.37423C16.7851 8.19737 16.8846 7.99551 16.9423 7.78018C16.9999 7.56485 17.0146 7.34027 16.9854 7.11927C16.9413 6.78496 16.7436 6.44215 16.349 5.7574C15.9528 5.07264 15.7551 4.73069 15.4878 4.5245C15.3109 4.38881 15.1091 4.2893 14.8937 4.23165C14.6784 4.17399 14.4538 4.15933 14.2328 4.18849C14.0292 4.21564 13.823 4.29879 13.537 4.44983C13.333 4.56111 13.1041 4.61885 12.8718 4.61766C12.6394 4.61648 12.4111 4.5564 12.2083 4.44304C12.0085 4.32399 11.8423 4.15622 11.7251 3.95544C11.6078 3.75466 11.5434 3.52743 11.5379 3.295C11.526 2.97256 11.4955 2.75194 11.4166 2.56272C11.3313 2.35669 11.2062 2.16948 11.0486 2.0118C10.8909 1.85412 10.7037 1.72906 10.4976 1.64378Z" stroke="#9CA3AF" stroke-width="1.5"/>
</svg>
