<svg width="23" height="19" viewBox="0 0 23 19" fill="none" xmlns="http://www.w3.org/2000/svg">
<path d="M15.2682 6.00013C16.6012 7.77813 16.6012 11.2221 15.2682 13.0001M18.2682 2.50013C22.2562 6.30814 22.2802 12.7171 18.2682 16.5001M1.26819 12.4591V6.54013C1.26819 5.96613 1.71619 5.50013 2.26819 5.50013H5.85419C5.98652 5.49966 6.11739 5.4724 6.2389 5.41998C6.36041 5.36756 6.47004 5.29107 6.56119 5.19514L9.56119 1.80714C10.1912 1.15114 11.2682 1.61614 11.2682 2.54314V16.4571C11.2682 17.3911 10.1782 17.8521 9.55219 17.1831L6.56219 13.8141C6.47078 13.7155 6.36004 13.6367 6.23686 13.5826C6.11368 13.5286 5.98069 13.5005 5.84619 13.5001H2.26819C1.71619 13.5001 1.26819 13.0341 1.26819 12.4591Z" stroke="#9CA3AF" stroke-width="2" stroke-linecap="round" stroke-linejoin="round"/>
</svg>
