<svg width="19" height="20" viewBox="0 0 19 20" fill="none" xmlns="http://www.w3.org/2000/svg">
<path d="M10.3064 1.97252C10.2261 1.82921 10.109 1.70988 9.96728 1.62683C9.82552 1.54378 9.66419 1.5 9.49989 1.5C9.33559 1.5 9.17425 1.54378 9.03249 1.62683C8.89073 1.70988 8.77366 1.82921 8.69332 1.97252C8.50443 2.31629 8.32278 2.66447 8.14838 3.01705C7.59889 4.13238 7.13171 5.28639 6.75059 6.46986C6.61931 6.87691 6.23019 7.15929 5.78441 7.17157C4.43311 7.20709 3.0862 7.34124 1.75444 7.57295C1.02343 7.70139 0.748596 8.53437 1.26804 9.04247C1.38642 9.15895 1.50605 9.27386 1.62694 9.38719C2.53083 10.2408 3.48655 11.0378 4.48862 11.7737C4.83524 12.0278 4.97785 12.4632 4.84563 12.8617C4.34194 14.3757 3.98147 15.9336 3.76895 17.5149C3.67451 18.2279 4.43762 18.7313 5.10063 18.3913C6.41535 17.7172 7.67253 16.9364 8.85955 16.0567C9.04547 15.921 9.2697 15.8479 9.49989 15.8479C9.73007 15.8479 9.9543 15.921 10.1402 16.0567C11.327 16.9367 12.5842 17.7176 13.8991 18.3913C14.5612 18.7313 15.3253 18.2279 15.2308 17.5149C15.1943 17.2473 15.1543 16.9813 15.1109 16.7169C14.8927 15.4089 14.5728 14.1199 14.1541 12.8617C14.0219 12.4632 14.1636 12.0278 14.5111 11.7737C15.648 10.9408 16.7243 10.028 17.7317 9.04247C18.2512 8.53437 17.9773 7.70139 17.2453 7.57295C15.9138 7.33989 14.5667 7.20573 13.2154 7.17157C13.0017 7.16817 12.7943 7.09897 12.6214 6.9734C12.4485 6.84782 12.3185 6.67199 12.2492 6.46986C11.7474 4.9122 11.0968 3.40551 10.3064 1.97252Z" stroke="#9CA3AF" stroke-width="2" stroke-linecap="round" stroke-linejoin="round"/>
</svg>
