<svg width="19" height="19" viewBox="0 0 19 19" fill="none" xmlns="http://www.w3.org/2000/svg">
<path d="M10.3064 1.47252C10.2261 1.32921 10.109 1.20988 9.96728 1.12683C9.82552 1.04378 9.66419 1 9.49989 1C9.33559 1 9.17425 1.04378 9.03249 1.12683C8.89073 1.20988 8.77366 1.32921 8.69332 1.47252C8.50443 1.81629 8.32278 2.16447 8.14838 2.51705C7.59889 3.63238 7.13171 4.78639 6.75059 5.96986C6.61931 6.37691 6.23019 6.65929 5.78441 6.67157C4.43311 6.70709 3.0862 6.84124 1.75444 7.07295C1.02343 7.20139 0.748596 8.03437 1.26804 8.54247C1.38642 8.65895 1.50605 8.77386 1.62694 8.88719C2.53083 9.74081 3.48655 10.5378 4.48862 11.2737C4.83524 11.5278 4.97785 11.9632 4.84563 12.3617C4.34194 13.8757 3.98147 15.4336 3.76895 17.0149C3.67451 17.7279 4.43762 18.2313 5.10063 17.8913C6.41535 17.2172 7.67253 16.4364 8.85955 15.5567C9.04547 15.421 9.2697 15.3479 9.49989 15.3479C9.73007 15.3479 9.9543 15.421 10.1402 15.5567C11.327 16.4367 12.5842 17.2176 13.8991 17.8913C14.5612 18.2313 15.3253 17.7279 15.2308 17.0149C15.1943 16.7473 15.1543 16.4813 15.1109 16.2169C14.8927 14.9089 14.5728 13.6199 14.1541 12.3617C14.0219 11.9632 14.1636 11.5278 14.5111 11.2737C15.648 10.4408 16.7243 9.52803 17.7317 8.54247C18.2512 8.03437 17.9773 7.20139 17.2453 7.07295C15.9138 6.83989 14.5667 6.70573 13.2154 6.67157C13.0017 6.66817 12.7943 6.59897 12.6214 6.4734C12.4485 6.34782 12.3185 6.17199 12.2492 5.96986C11.7474 4.4122 11.0968 2.90551 10.3064 1.47252Z" fill="#F59E0C" stroke="#F59E0C" stroke-width="2" stroke-linecap="round" stroke-linejoin="round"/>
</svg>
