<svg width="19" height="20" viewBox="0 0 19 20" fill="none" xmlns="http://www.w3.org/2000/svg">
<path d="M1 10C1 5.9931 1 3.98965 2.2444 2.7444C3.4905 1.5 5.4931 1.5 9.5 1.5C13.5069 1.5 15.5104 1.5 16.7548 2.7444C18 3.9905 18 5.9931 18 10C18 14.0069 18 16.0104 16.7548 17.2548C15.5112 18.5 13.5069 18.5 9.5 18.5C5.4931 18.5 3.48965 18.5 2.2444 17.2548C1 16.0112 1 14.0069 1 10Z" stroke="#9CA3AF" stroke-width="1.5"/>
<path d="M5.25 11.7L7.19905 9.75094C7.35845 9.59159 7.57461 9.50207 7.8 9.50207C8.02539 9.50207 8.24155 9.59159 8.40095 9.75094L9.74905 11.099C9.90845 11.2584 10.1246 11.3479 10.35 11.3479C10.5754 11.3479 10.7916 11.2584 10.9509 11.099L13.75 8.29999M13.75 8.29999V10.425M13.75 8.29999H11.625" stroke="#9CA3AF" stroke-width="1.5" stroke-linecap="round" stroke-linejoin="round"/>
</svg>
