<svg width="20" height="20" viewBox="0 0 20 20" fill="none" xmlns="http://www.w3.org/2000/svg">
<path d="M10 20C8.61667 20 7.31667 19.7373 6.1 19.212C4.88334 18.6867 3.825 17.9743 2.925 17.075C2.025 16.1757 1.31267 15.1173 0.788001 13.9C0.263335 12.6827 0.000667933 11.3827 1.26582e-06 10C-0.000665401 8.61733 0.262001 7.31733 0.788001 6.1C1.314 4.88267 2.02633 3.82433 2.925 2.925C3.82367 2.02567 4.882 1.31333 6.1 0.788C7.318 0.262667 8.618 0 10 0C11.382 0 12.682 0.262667 13.9 0.788C15.118 1.31333 16.1763 2.02567 17.075 2.925C17.9737 3.82433 18.6863 4.88267 19.213 6.1C19.7397 7.31733 20.002 8.61733 20 10C19.998 11.3827 19.7353 12.6827 19.212 13.9C18.6887 15.1173 17.9763 16.1757 17.075 17.075C16.1737 17.9743 15.1153 18.687 13.9 19.213C12.6847 19.739 11.3847 20.0013 10 20ZM10 18C12.2333 18 14.125 17.225 15.675 15.675C17.225 14.125 18 12.2333 18 10C18 7.76667 17.225 5.875 15.675 4.325C14.125 2.775 12.2333 2 10 2C7.76667 2 5.875 2.775 4.325 4.325C2.775 5.875 2 7.76667 2 10C2 12.2333 2.775 14.125 4.325 15.675C5.875 17.225 7.76667 18 10 18ZM10 16C8.33333 16 6.91667 15.4167 5.75 14.25C4.58333 13.0833 4 11.6667 4 10C4 8.33333 4.58333 6.91667 5.75 5.75C6.91667 4.58333 8.33333 4 10 4C11.6667 4 13.0833 4.58333 14.25 5.75C15.4167 6.91667 16 8.33333 16 10C16 11.6667 15.4167 13.0833 14.25 14.25C13.0833 15.4167 11.6667 16 10 16ZM10 14C11.1 14 12.0417 13.6083 12.825 12.825C13.6083 12.0417 14 11.1 14 10C14 8.9 13.6083 7.95833 12.825 7.175C12.0417 6.39167 11.1 6 10 6C8.9 6 7.95833 6.39167 7.175 7.175C6.39167 7.95833 6 8.9 6 10C6 11.1 6.39167 12.0417 7.175 12.825C7.95833 13.6083 8.9 14 10 14ZM10 12C9.45 12 8.97933 11.8043 8.588 11.413C8.19667 11.0217 8.00067 10.5507 8 10C7.99933 9.44933 8.19533 8.97867 8.588 8.588C8.98067 8.19733 9.45133 8.00133 10 8C10.5487 7.99867 11.0197 8.19467 11.413 8.588C11.8063 8.98133 12.002 9.452 12 10C11.998 10.548 11.8023 11.019 11.413 11.413C11.0237 11.807 10.5527 12.0027 10 12Z" fill="#12B981"/>
</svg>
