<svg width="22" height="20" viewBox="0 0 22 20" fill="none" xmlns="http://www.w3.org/2000/svg">
<path d="M14.075 16.95L13.225 19.375C13.1583 19.5583 13.0417 19.7083 12.875 19.825C12.7083 19.9417 12.525 20 12.325 20C11.9917 20 11.721 19.8623 11.513 19.587C11.305 19.3117 11.2673 19.0077 11.4 18.675L15.2 8.625C15.2833 8.44167 15.4083 8.29167 15.575 8.175C15.7417 8.05834 15.925 8 16.125 8H16.875C17.075 8 17.2583 8.05834 17.425 8.175C17.5917 8.29167 17.7167 8.44167 17.8 8.625L21.6 18.7C21.7333 19.0167 21.7 19.3127 21.5 19.588C21.3 19.8633 21.0333 20.0007 20.7 20C20.4833 20 20.296 19.9417 20.138 19.825C19.98 19.7083 19.859 19.55 19.775 19.35L18.925 16.95H14.075ZM8.05 11.975L3.7 16.3C3.51667 16.4833 3.28767 16.5793 3.013 16.588C2.73834 16.5967 2.50067 16.5007 2.3 16.3C2.11667 16.1167 2.025 15.8833 2.025 15.6C2.025 15.3167 2.11667 15.0833 2.3 14.9L6.65 10.55C6.06667 9.96667 5.53734 9.3 5.062 8.55C4.58667 7.8 4.14934 6.95 3.75 6H5.85C6.18334 6.65 6.51667 7.21667 6.85 7.7C7.18334 8.18334 7.58334 8.66667 8.05 9.15C8.6 8.6 9.171 7.829 9.763 6.837C10.355 5.845 10.8007 4.89934 11.1 4H1C0.71667 4 0.479337 3.904 0.288003 3.712C0.0966701 3.52 0.000670115 3.28267 3.44828e-06 3C-0.000663218 2.71734 0.0953368 2.48 0.288003 2.288C0.48067 2.096 0.718003 2 1 2H7V1C7 0.71667 7.096 0.479337 7.288 0.288004C7.48 0.0966702 7.71734 0.000670115 8 3.44827e-06C8.28267 -0.000663218 8.52034 0.0953369 8.713 0.288004C8.90567 0.48067 9.00134 0.718003 9 1V2H15C15.2833 2 15.521 2.096 15.713 2.288C15.905 2.48 16.0007 2.71734 16 3C15.9993 3.28267 15.9033 3.52034 15.712 3.713C15.5207 3.90567 15.2833 4.00134 15 4H13.1C12.75 5.2 12.225 6.43334 11.525 7.7C10.825 8.96667 10.1333 9.93334 9.45 10.6L11.85 13.05L11.1 15.1L8.05 11.975ZM14.7 15.2H18.3L16.5 10.1L14.7 15.2Z" fill="white"/>
</svg>
