<svg width="29" height="28" viewBox="0 0 29 28" fill="none" xmlns="http://www.w3.org/2000/svg">
<path fill-rule="evenodd" clip-rule="evenodd" d="M19.6931 10.1819C19.6931 11.5321 19.1399 12.8269 18.1551 13.7817C17.1704 14.7364 15.8347 15.2728 14.442 15.2728C13.0493 15.2728 11.7137 14.7364 10.7289 13.7817C9.74416 12.8269 9.19092 11.5321 9.19092 10.1819C9.19092 8.83167 9.74416 7.53677 10.7289 6.58204C11.7137 5.62731 13.0493 5.09095 14.442 5.09095C15.8347 5.09095 17.1704 5.62731 18.1551 6.58204C19.1399 7.53677 19.6931 8.83167 19.6931 10.1819ZM17.0676 10.1819C17.0676 10.857 16.791 11.5044 16.2986 11.9818C15.8062 12.4591 15.1384 12.7273 14.442 12.7273C13.7457 12.7273 13.0779 12.4591 12.5855 11.9818C12.0931 11.5044 11.8165 10.857 11.8165 10.1819C11.8165 9.50676 12.0931 8.85932 12.5855 8.38195C13.0779 7.90459 13.7457 7.6364 14.442 7.6364C15.1384 7.6364 15.8062 7.90459 16.2986 8.38195C16.791 8.85932 17.0676 9.50676 17.0676 10.1819Z" fill="#C6CAD1"/>
<path fill-rule="evenodd" clip-rule="evenodd" d="M14.4406 0C6.46543 0 0 6.26818 0 14C0 21.7318 6.46543 28 14.4406 28C22.4157 28 28.8811 21.7318 28.8811 14C28.8811 6.26818 22.4157 0 14.4406 0ZM2.62556 14C2.62556 16.66 3.56157 19.1087 5.13034 21.0535C6.23234 19.6511 7.6537 18.5145 9.28349 17.7326C10.9133 16.9506 12.7074 16.5443 14.5259 16.5455C16.321 16.5434 18.0928 16.9388 19.7063 17.7016C21.3198 18.4643 22.7323 19.5742 23.8361 20.9465C24.9736 19.5002 25.7394 17.8121 26.0703 16.0218C26.4012 14.2316 26.2876 12.3907 25.739 10.6514C25.1903 8.91219 24.2224 7.32461 22.9152 6.02005C21.608 4.71549 19.9992 3.73146 18.2219 3.14937C16.4445 2.56729 14.5498 2.40389 12.6944 2.67269C10.839 2.94149 9.07627 3.63477 7.55211 4.69516C6.02795 5.75555 4.78614 7.15256 3.92945 8.77061C3.07275 10.3887 2.62579 12.1812 2.62556 14ZM14.4406 25.4545C11.7282 25.4588 9.09774 24.5542 6.99448 22.8938C7.84097 21.7186 8.96784 20.7591 10.2792 20.0969C11.5905 19.4348 13.0474 19.0897 14.5259 19.0909C15.9859 19.0897 17.4252 19.4262 18.7241 20.0726C20.0231 20.7189 21.1442 21.6565 21.9943 22.8073C19.8748 24.5216 17.2009 25.4587 14.4406 25.4545Z" fill="#C6CAD1"/>
</svg>
